#!OML:ASF X:\für Bonn\!DataBase\2005_08_10_Bjorn_Final\c3d\bjorn.ASF
:FULLY-SPECIFIED
:DEGREES
176
root -1.07061 7.47957 20.3827 -389.31 -182.274 350.407
lowerback 51.0003 -20.1775 4.30849
upperback 24.5878 -7.00086 4.14471
thorax 7.329 2.42495 5.58245
lowerneck 5.09944 -10.5089 10.8904
upperneck 8.20217 -13.0603 1.75127
head 1.16882 -5.95253 -1.06144
rclavicle 2.54444e-014 -3.65764e-014
rhumerus -194.189 -140.794 120.607
rradius 31.5379
rwrist -5.99555
rhand -21.372 10.5956
rfingers 7.12502
rthumb 5.01519 -19.3251
lclavicle 2.54444e-014 -3.65764e-014
lhumerus -359.793 2.52428 -293.527
lradius 48.0732
lwrist 18.4111
lhand -25.9168 -14.2419
lfingers 7.12502
lthumb 0.626131 15.7369
rfemur -81.4031 -67.6919 -8.3588
rtibia 139.961
rfoot -34.9499 42.2363
rtoes -19.5836
lfemur -72.3756 25.1789 -11.4684
ltibia 137.583
lfoot -28.5016 -4.817
ltoes -26.226
177
root -1.00507 7.3556 20.3964 -390.287 -181.744 350.618
lowerback 50.7089 -20.2837 4.21928
upperback 24.6758 -7.21712 3.76615
thorax 7.43213 2.40729 5.27545
lowerneck 5.20309 -10.5016 11.4194
upperneck 8.29809 -12.9916 1.7689
head 1.15585 -5.88733 -1.13394
rclavicle 3.18055e-015 5.56597e-014
rhumerus -195.597 -140.871 120.236
rradius 32.0911
rwrist -6.14918
rhand -21.6592 10.6982
rfingers 7.12502
rthumb 4.73787 -19.2288
lclavicle 3.18055e-015 5.56597e-014
lhumerus -360.754 2.50201 -293.527
lradius 47.4139
lwrist 17.2208
lhand -26.6645 -13.7205
lfingers 7.12502
lthumb -0.0960893 16.2593
rfemur -79.3938 -70.512 -10.6582
rtibia 140.748
rfoot -36.4297 42.9347
rtoes -19.4959
lfemur -72.0692 26.0925 -10.4824
ltibia 138.017
lfoot -28.3977 -6.00601
ltoes -26.6155
178
root -0.938792 7.23649 20.4086 -391.26 -181.222 350.855
lowerback 50.4332 -20.3433 4.05728
upperback 24.7545 -7.41385 3.43811
thorax 7.52977 2.37932 5.04732
lowerneck 5.32975 -10.4882 11.9979
upperneck 8.39328 -12.9006 1.62751
head 1.12584 -5.81114 -1.26296
rclavicle -4.13472e-014 -2.03555e-013
rhumerus -196.918 -140.93 119.891
rradius 32.5462
rwrist -6.191
rhand -21.9907 10.715
rfingers 7.12502
rthumb 4.41772 -19.219
lclavicle -4.13472e-014 -2.03555e-013
lhumerus -361.809 2.46548 -293.421
lradius 46.6243
lwrist 15.9651
lhand -27.0176 -13.0069
lfingers 7.12502
lthumb -0.437056 16.9724
rfemur -76.4971 -73.2912 -13.8343
rtibia 141.511
rfoot -38.0193 43.5249
rtoes -19.36
lfemur -71.7587 26.938 -9.4561
ltibia 138.416
lfoot -28.2748 -7.18314
ltoes -26.9823
179
root -0.872714 7.12122 20.4186 -392.188 -180.692 351.104
lowerback 50.0904 -20.3664 3.80965
upperback 24.8797 -7.60588 3.15746
thorax 7.69932 2.33682 4.9071
lowerneck 5.46398 -10.4604 12.5718
upperneck 8.46473 -12.7874 1.4235
head 1.08423 -5.72671 -1.41181
rclavicle 4.13472e-014 -6.36111e-014
rhumerus -197.997 -140.97 119.508
rradius 32.8604
rwrist -6.22582
rhand -22.3017 10.7065
rfingers 7.12502
rthumb 4.11745 -19.2335
lclavicle 4.13472e-014 -6.36111e-014
lhumerus -362.834 2.54018 -293.162
lradius 45.6777
lwrist 14.8251
lhand -27.0393 -12.1796
lfingers 7.12502
lthumb -0.458003 17.7997
rfemur -72.2436 -76.0178 -18.4035
rtibia 142.248
rfoot -39.6616 44.0918
rtoes -19.2251
lfemur -71.4939 27.7835 -8.44148
ltibia 138.797
lfoot -28.2004 -8.32201
ltoes -27.5091
180
root -0.805966 7.01067 20.427 -393.094 -180.193 351.357
lowerback 49.7172 -20.3492 3.49653
upperback 25.0324 -7.78608 2.87588
thorax 7.90902 2.28868 4.7905
lowerneck 5.62624 -10.3924 13.1198
upperneck 8.54507 -12.6155 1.27292
head 1.04997 -5.61117 -1.5426
rclavicle 0 -1.145e-013
rhumerus -198.944 -140.917 119.081
rradius 33.0574
rwrist -6.11949
rhand -22.5629 10.6658
rfingers 7.12502
rthumb 3.86524 -19.2789
lclavicle 0 -1.145e-013
lhumerus -363.851 2.7432 -292.842
lradius 44.6513
lwrist 13.968
lhand -26.605 -11.3402
lfingers 7.12502
lthumb -0.0386287 18.6395
rfemur -65.9467 -78.5108 -25.0124
rtibia 142.961
rfoot -41.3833 44.4817
rtoes -19.2237
lfemur -71.2234 28.6582 -7.39415
ltibia 139.145
lfoot -28.1205 -9.5065
ltoes -27.9484
181
root -0.740249 6.90473 20.4339 -393.919 -179.718 351.607
lowerback 49.2458 -20.3037 3.19045
upperback 25.2114 -7.95023 2.60872
thorax 8.16392 2.23957 4.68006
lowerneck 5.67096 -10.2783 13.5769
upperneck 8.66799 -12.4124 1.17569
head 1.06059 -5.47948 -1.65345
rclavicle -1.27222e-013 -1.81292e-013
rhumerus -199.755 -140.823 118.634
rradius 33.1398
rwrist -5.94733
rhand -22.8917 10.643
rfingers 7.12502
rthumb 3.5477 -19.3072
lclavicle -1.27222e-013 -1.81292e-013
lhumerus -364.806 3.01768 -292.444
lradius 43.5077
lwrist 13.3252
lhand -25.941 -10.7488
lfingers 7.12502
lthumb 0.602747 19.2301
rfemur -56.9358 -80.6955 -34.3685
rtibia 143.653
rfoot -43.0855 44.7513
rtoes -19.2428
lfemur -71.0219 29.5754 -6.36453
ltibia 139.465
lfoot -28.0367 -10.7238
ltoes -28.3023
